<?xml version="1.0" standalone="no"?><!DOCTYPE svg PUBLIC "-//W3C//DTD SVG 1.1//EN" "http://www.w3.org/Graphics/SVG/1.1/DTD/svg11.dtd"><svg t="1652926413397" class="icon" viewBox="0 0 1024 1024" version="1.1" xmlns="http://www.w3.org/2000/svg" p-id="4611" xmlns:xlink="http://www.w3.org/1999/xlink" width="200" height="200"><defs><style type="text/css"></style></defs><path d="M134.00064 50.51904h653.4144c24.50944 0 44.55936 20.05504 44.55936 44.56448v294.1184c0 16.1536-11.69408 31.19616-28.40576 32.3072-18.3808 1.67424-33.97632-12.81024-33.97632-30.63808v-277.9648s0-0.55808-0.5632-0.55808H150.71232s-0.55296 0-0.55296 0.55808V854.8864s0 0.55808 0.55296 0.55808h214.46144c16.1536 0 31.19616 11.69408 32.31232 28.40576 1.66912 18.38592-12.81024 33.98656-30.63808 33.98656H132.8896c-24.50944 0-44.56448-20.05504-44.56448-44.56448V95.08352c1.11104-24.50944 21.16608-44.56448 45.67552-44.56448z" p-id="4612" fill="#ffffff"></path><path d="M708.32128 917.27872c102.49216 0 185.49248-82.9952 185.49248-185.49248s-83.00544-185.49248-185.49248-185.49248c-102.5024 0-185.50272 82.9952-185.50272 185.49248s83.00032 185.49248 185.50272 185.49248z m0 61.83424c-136.47872 0-247.33184-110.85312-247.33184-247.33184s110.85312-247.32672 247.33184-247.32672c136.4736 0 247.3216 110.85312 247.3216 247.32672s-110.29504 247.33184-247.3216 247.33184z" p-id="4613" fill="#ffffff"></path><path d="M677.67808 640.42496a31.14496 31.14496 0 0 1 31.19616-31.19104 31.13984 31.13984 0 0 1 31.19104 31.19104v79.104l60.16512 60.16a30.94016 30.94016 0 0 1 0 44.0064 30.9248 30.9248 0 0 1-44.01152 0l-60.16-60.15488c-11.6992-11.70432-18.3808-27.29984-18.3808-44.01152v-79.104zM244.29568 236.57472h371.54816a31.15008 31.15008 0 0 1 31.20128 31.19616 31.14496 31.14496 0 0 1-31.20128 31.19104H244.29568a31.14496 31.14496 0 0 1-31.19616-31.19104c0.55808-17.83296 13.9264-31.19616 31.19616-31.19616z m0 123.65824H491.6224c17.26464 0 31.19104 13.9264 31.19104 31.19616s-13.9264 31.19616-31.19104 31.19616H244.29568a31.14496 31.14496 0 0 1-31.19616-31.19616c0.55808-17.26976 13.9264-31.19616 31.19616-31.19616z m0 123.66848h123.66336a31.14496 31.14496 0 0 1 31.19616 31.19104 31.14496 31.14496 0 0 1-31.19616 31.20128H244.29568a31.14496 31.14496 0 0 1-31.19616-31.20128c0.55808-17.26976 13.9264-31.19104 31.19616-31.19104z" p-id="4614" fill="#ffffff"></path></svg>