<?xml version="1.0" standalone="no"?><!DOCTYPE svg PUBLIC "-//W3C//DTD SVG 1.1//EN" "http://www.w3.org/Graphics/SVG/1.1/DTD/svg11.dtd"><svg t="1652927353439" class="icon" viewBox="0 0 1057 1024" version="1.1" xmlns="http://www.w3.org/2000/svg" p-id="5894" xmlns:xlink="http://www.w3.org/1999/xlink" width="206.4453125" height="200"><defs><style type="text/css"></style></defs><path d="M1024 1024H33.032258c-19.819355 0-33.032258-13.212903-33.032258-33.032258s13.212903-33.032258 33.032258-33.032258h990.967742c19.819355 0 33.032258 13.212903 33.032258 33.032258s-13.212903 33.032258-33.032258 33.032258zM251.045161 323.716129v508.696774H132.129032V323.716129h118.916129m33.032258-66.064516H99.096774c-19.819355 0-33.032258 13.212903-33.032258 33.032258v574.76129c0 19.819355 13.212903 33.032258 33.032258 33.032258h191.587097c19.819355 0 33.032258-13.212903 33.032258-33.032258V290.683871c-6.606452-19.819355-19.819355-33.032258-39.63871-33.032258zM891.870968 257.651613v574.76129h-125.522581V257.651613h125.522581m33.032258-66.064516h-191.587097c-19.819355 0-33.032258 13.212903-33.032258 33.032258v640.825806c0 19.819355 13.212903 33.032258 33.032258 33.032258H924.903226c19.819355 0 33.032258-13.212903 33.032258-33.032258V224.619355c0-19.819355-13.212903-33.032258-33.032258-33.032258zM574.76129 66.064516v766.348387H449.23871V66.064516h125.52258m33.032258-66.064516H416.206452c-19.819355 0-33.032258 13.212903-33.032258 33.032258v832.412903c0 19.819355 13.212903 33.032258 33.032258 33.032258h191.587096c19.819355 0 33.032258-13.212903 33.032258-33.032258V33.032258c0-19.819355-13.212903-33.032258-33.032258-33.032258z" p-id="5895" fill="#ffffff"></path></svg>