<?xml version="1.0" standalone="no"?><!DOCTYPE svg PUBLIC "-//W3C//DTD SVG 1.1//EN" "http://www.w3.org/Graphics/SVG/1.1/DTD/svg11.dtd"><svg t="1655113065354" class="icon" viewBox="0 0 1024 1024" version="1.1" xmlns="http://www.w3.org/2000/svg" p-id="1891" xmlns:xlink="http://www.w3.org/1999/xlink" width="200" height="200"><defs><style type="text/css"></style></defs><path d="M936.224 409.6H665.6C797.248 21.952 592.448 0 592.448 0c-73.152 0-95.072 58.528-102.4 73.152 0 190.176-168.224 336.448-168.224 336.448v541.248c0 51.2 73.152 73.152 102.4 73.152h409.6c36.576 0 73.152-102.4 73.152-102.4 102.4-343.776 102.4-446.176 102.4-446.176 0-73.152-73.152-65.824-73.152-65.824z m-724.096 0H51.2C14.624 409.6 14.624 446.176 14.624 446.176L51.2 987.424C51.2 1024 87.776 1024 87.776 1024h138.976C256 1024 256 1002.048 256 1002.048V453.472C256 409.6 212.128 409.6 212.128 409.6z" p-id="1892" fill="#dfcd7e"></path></svg>